/* XPM */
static char *_bb26303f271467a95fd7b1b86236fafrWWoPlFvyn9X2FGg[] = {
/* columns rows colors chars-per-pixel */
"24 24 5 1 ",
"  c None",
". c black",
"X c #2F5FFA",
"o c #5CAEFA",
"O c white",
/* pixels */
"                        ",
"                        ",
"                        ",
"                        ",
"     ....      ....     ",
"    .oooo..  ..oooo.    ",
"   .ooXXXoo..ooXXOOo.   ",
"   .oXooXXXooXXXXOOo.   ",
"   .oXooXXXXXXXOXXXo.   ",
"   .oXXXXXXXXXXXXXXo.   ",
"   .oXXoXXXXXXXXXXXo.   ",
"   .ooXXXXXXXXXXXXoo.   ",
"   .XoXXXXXXXXXXXXoo.   ",
"    .ooXXXXXXXXXXoo.    ",
"    .oooXXXXXXXXooo.    ",
"     .ooooXXXXoooO.     ",
"      .OooooooooO.      ",
"       .OooooooO.       ",
"        .OOooOO.        ",
"         ..OO..         ",
"           ..           ",
"                        ",
"                        ",
"                        "
};
