/* XPM */
static char *_5f26a5d4bc0415fb73621110420a661UXf3VmwfrAvJUA8G[] = {
/* columns rows colors chars-per-pixel */
"460 20 5 1 ",
"  c None",
". c black",
"X c #2F5FFA",
"o c #5CAEFA",
"O c white",
/* pixels */
"                                                                                                                                                                                                                                                                                                                                                                                                                                                                            ",
"                                                                                                                                                                                                                                                                                                                                                                                                                                                                            ",
"   ....      ....      ....      ....      ....      ....      ....      ....      ....      ....      ....      ....      ....      ....      ....      ....      ....      ....      ....      ....      ....      ....      ....      ....       ....    ....         ....  ....            ......               ....               ......            ....  ....         ....    ....       ....      ....      ....      ....      ....      ....      ....      ....   ",
"  .oooo..  ..oooo.    .oooo..  ..oooo.    .oooo..  ..oooo.    .oooo..  ..oooo.    .oooo..  ..oooo.    .oooo..  ..oooo.    .oooo..  ..oooo.    .oooo..  ..oooo.    .oooo..  ..oooo.    .oooo..  ..oooo.    .oooo..  ..oooo.    .oooo..  ..oooo.     .oooo.  .oooo.       .oooo..oooo.          .ooo..o.             .oooo.             .O..ooo.          .oooo..oOoo.       .oooo.  .oooo.     .OOOO..  ..OOoo.    .oooo..  ..OOOO.    .oooo..  ..oooO.    .oooo..  ..oooo.  ",
" .ooXXXoo..ooXXOOo.  .ooXXXoo..ooXXOOo.  .ooXXXoo..ooXXOOo.  .ooXXXoo..ooXXOOo.  .ooXXXoo..ooXXOOo.  .ooXXXoo..ooXXOOo.  .ooXXXoo..ooXXOOo.  .ooXXXoo..ooXXOOo.  .ooXXXoo..ooXXOOo.  .ooXXXoo..ooXXOOo.  .ooXXXoo..ooXXOOo.  .ooXXXoo..ooXXOOo.   .ooXXXo..oXXXOo.     .ooXXXooXXXXo.        .oXXXooXO.           .oXXXXo.           .oXooXXXo.        .ooXXXooXOXXo.     .ooXXXo..oXXOOo.   .oOOOOOO..OOOOOoo.  .ooXXXoo..ooXOOOO.  .ooXXXoo..ooXXOOO.  .ooXXXoo..ooXXOOo. ",
" .oXooXXXooXXXXOOo.  .oXooXXXooXXXXOOo.  .oXooXXXooXXXXOOo.  .oXooXXXooXXXXOOo.  .oXooXXXooXXXXOOo.  .oXooXXXooXXXXOOo.  .oXooXXXooXXXXOOo.  .oXooXXXooXXXXOOo.  .oXooXXXooXXXXOOo.  .oXooXXXooXXXXOOo.  .oXooXXXooXXXXOOo.  .oXooXXXooXXXXOOo.   .oXooXXooXXXOOo.     .oXooXXXXXXXo.       .oXXXXXoXXo.         .oXXXXXXO.         .oXXoXXXXXo.       .oXooXXXXXXOO.     .oXooXXooXOXOOo.   .oXOOOOOOOOOOOOXo.  .oXooXXXooXXXXOOO.  .oXooXXXooXXXXXOo.  .oXooXXXooXXXXOOo. ",
" .oXooXXXXXXXOXXXo.  .oXooXXXXXXXOXXXo.  .oXooXXXXXXXOXXXo.  .oXooXXXXXXXOXXXo.  .oXooXXXXXXXOXXXo.  .oXooXXXXXXXOXXXo.  .oXooXXXXXXXOXXXo.  .oXooXXXXXXXOXXXo.  .oXooXXXXXXXOXXXo.  .oXooXXXXXXXOXXXo.  .oXooXXXXXXXOXXXo.  .oXooXXXXXXXOXXXo.   .oXooXXXXXOXOOo.     .oXooXXXXXXXo.       .oXXXXXoXXo.         .oXXXXXXO.         .OXXoXXXXXo.       .oXooXXXXXXOO.     .oXooXXXXXOXXXo.   .oXooOOOOOOOOOOXo.  .oXooXXXXXXXOXXOO.  .oXooXXXXXXXOXXXo.  .oXooXXXXXXXOXXXo. ",
" .oXXXXXXXXXXXXXXo.  .oXXXXXXXXXXXXXXo.  .oXXXXXXXXXXXXXXo.  .oXXXXXXXXXXXXXXo.  .oXXXXXXXXXXXXXXo.  .oXXXXXXXXXXXXXXo.  .oXXXXXXXXXXXXXXo.  .oXXXXXXXXXXXXXXo.  .oXXXXXXXXXXXXXXo.  .oXXXXXXXXXXXXXXo.  .oXXXXXXXXXXXXXXo.  .oXXXXXXXXXXXXXXo.   .oXXXXXXXXOXXXo.     .oXXXXXXXXOOo.       .oXXXXXXXXo.         .oXXXXXXo.         .OXXXXXXXXo.       .oXXXXXXXXXXo.     .oXXXXXXXXXXXXo.   .oXXXXOOOOOOOOOOo.  .oXXXXXXXXXXXXXXO.  .oXXXXXXXXXXXXXXo.  .oXXXXXXXXXXXXXXo. ",
" .oXXoXXXXXXXXXXXo.  .oXXoXXXXXXXXXXXo.  .oXXoXXXXXXXXXXXo.  .oXXoXXXXXXXXXXXo.  .oXXoXXXXXXXXXXXo.  .oXXoXXXXXXXXXXXo.  .oXXoXXXXXXXXXXXo.  .oXXoXXXXXXXXXXXo.  .oXXoXXXXXXXXXXXo.  .oXXoXXXXXXXXXXXo.  .oXXoXXXXXXXXXXXo.  .oXXoXXXXXXXXXXXo.   .oXXoXXXXXXXXXo.     .oXXoXXXOXOOo.       .oXXXXXXXXo.         .oXXXXXXo.         .oXXXXXXXXo.       .oXXoXXXXXXXo.     .oXXoXXXXXXXXXo.   .oXXoXXOOOOOOOOOO.  .oXXoXXXXXXXXXXXO.  .oXXoXXXXXXXXXXXo.  .oXXoXXXXXXXXXXXo. ",
" .ooXXXXXXXXXXXXoo.  .ooXXXXXXXXXXXXoo.  .ooXXXXXXXXXXXXoo.  .ooXXXXXXXXXXXXoo.  .ooXXXXXXXXXXXXoo.  .ooXXXXXXXXXXXXoo.  .ooXXXXXXXXXXXXoo.  .ooXXXXXXXXXXXXoo.  .ooXXXXXXXXXXXXoo.  .ooXXXXXXXXXXXXoo.  .ooXXXXXXXXXXXXoo.  .ooXXXXXXXXXXXXoo.   .ooXXXXXXXXXXoo.     .ooXXXXXOOOoo.       .oXXXXXXXOo.         .oXXXXXXo.         .oXXXXXXXXo.       .ooXXXXXXXXoo.     .OoXXXXXXXXXXoo.   .ooXXXXOOOOOOOOOO.  .ooXXXXXXXXXXXXoo.  .ooXXXXXXXXXXXXoo.  .ooXXXXXXXXXXXXoo. ",
" .XoXXXXXXXXXXXXoo.  .XoXXXXXXXXXXXXoo.  .XoXXXXXXXXXXXXoo.  .XoXXXXXXXXXXXXoo.  .XoXXXXXXXXXXXXoo.  .XoXXXXXXXXXXXXoo.  .XoXXXXXXXXXXXXoo.  .XoXXXXXXXXXXXXoo.  .XoXXXXXXXXXXXXoo.  .XoXXXXXXXXXXXXoo.  .XoXXXXXXXXXXXXoo.  .XoXXXXXXXXXXXXoo.   .XoXXXXXXXXXXoo.     .XoXXXXXXOOoo.        .oXXXXXOO.          .oXXXXXXo.          .oXXXXXXo.        .XoXXXXXXXXoo.     .XOoXXXXXXXXXoo.   .XoXXXXXOOOOOOOOO.  .XoXXXXXXXXXXXXoo.  .XoXXXXXXXXXXXXoo.  .XoXXXXXXXXXXXXoo. ",
"  .ooXXXXXXXXXXoo.    .ooXXXXXXXXXXoo.    .ooXXXXXXXXXXoo.    .ooXXXXXXXXXXoo.    .ooXXXXXXXXXXoo.    .ooXXXXXXXXXXoo.    .ooXXXXXXXXXXoo.    .ooXXXXXXXXXXoo.    .ooXXXXXXXXXXoo.    .ooXXXXXXXXXXoo.    .ooXXXXXXXXXXoo.    .ooXXXXXXXXXXoo.     .ooXXXXXXXXoo.       .ooXXXXXXoo.         .oXXXXXOO.          .oXXXXXXo.          .oXXXXXXo.         .ooXXXXXXoo.       .OOooXXXXXXoo.     .ooXXXXXOOOOOOO.    .ooXXXXXXXXXXoo.    .ooXXXXXXXXXXoo.    .ooXXXXXXXXXXoo.  ",
"  .oooXXXXXXXXooo.    .oooXXXXXXXXooo.    .oooXXXXXXXXooo.    .oooXXXXXXXXooo.    .oooXXXXXXXXooo.    .oooXXXXXXXXooo.    .oooXXXXXXXXooo.    .oooXXXXXXXXooo.    .oooXXXXXXXXooo.    .oooXXXXXXXXooo.    .oooXXXXXXXXooo.    .oooXXXXXXXXooo.     .oooXXXXXXooo.       .oooXXXXooo.          .oXXXOO.            .oXXXXo.            .oXXXXo.          .oooXXXXooo.       .OOOoooooXooo.     .oooXXXXOOOOOOO.    .oooXXXXXXXXooo.    .oooXXXXXXXXooo.    .oooXXXXXXXXooo.  ",
"   .ooooXXXXoooO.      .ooooXXXXoooO.      .ooooXXXXoooO.      .ooooXXXXoooO.      .ooooXXXXoooO.      .ooooXXXXoooO.      .ooooXXXXoooO.      .ooooXXXXoooO.      .ooooXXXXoooO.      .ooooXXXXoooO.      .ooooXXXXoooO.      .ooooXXXXoooO.       .oooXXXXooO.         .OooooooO.           .OoXOOO.            .OoXXoo.            .ooXXoO.           .OooooooO.         .OOOooooooO.       .ooooXXOOOOOO.      .ooooXXXXoooO.      .ooooXXXXoooO.      .ooooXXXXoooO.   ",
"    .OooooooooO.        .OooooooooO.        .OooooooooO.        .OooooooooO.        .OooooooooO.        .OooooooooO.        .OooooooooO.        .OooooooooO.        .OooooooooO.        .OooooooooO.        .OooooooooO.        .OooooooooO.         .OooooooO.           .OooooO.            .OOOOOO.            .OooooO.            .OooooO.            .OooooO.           .OOOooooO.         .OooooOOOOO.        .OooooooooO.        .OooooooooO.        .OooooooooO.    ",
"     .OooooooO.          .OooooooO.          .OooooooO.          .OooooooO.          .OooooooO.          .OooooooO.          .OooooooO.          .OooooooO.          .OooooooO.          .OooooooO.          .OooooooO.          .OooooooO.           .OooooO.            .OooooO.             .OOOO.              .Oooo.              .oooO.             .OooooO.            .OOOOoO.           .OoooOOOO.          .OooooooO.          .OooooooO.          .OooooooO.     ",
"      .OOooOO.            .OOooOO.            .OOooOO.            .OOooOO.            .OOooOO.            .OOooOO.            .OOooOO.            .OOooOO.            .OOooOO.            .OOooOO.            .OOooOO.            .OOooOO.             .OooO.              .OooO.              .OOOO.              .OOoO.              .OooO.              .OooO.              .OOOO.             .OOOOOO.            .OOooOO.            .OOooOO.            .OOooOO.      ",
"       ..OO..              ..OO..              ..OO..              ..OO..              ..OO..              ..OO..              ..OO..              ..OO..              ..OO..              ..OO..              ..OO..              ..OO..               .OO.                .OO.                .OO.                .OO.                .OO.                .OO.                .OO.               ..OO..              ..OO..              ..OO..              ..OO..       ",
"         ..                  ..                  ..                  ..                  ..                  ..                  ..                  ..                  ..                  ..                  ..                  ..                  ..                  ..                  ..                  ..                  ..                  ..                  ..                  ..                  ..                  ..                  ..         ",
"                                                                                                                                                                                                                                                                                                                                                                                                                                                                            "
};
